<svg xmlns="http://www.w3.org/2000/svg" width="500" height="700"><path fill="#E6E869" d="M482.452 75.62s-3.047 97.114-24.11 115.43v.009c-.887.757-1.684 1.449-2.42 2.094-.074.083-.342.305-.693.618l-1.739 1.494c-.139.138-.287.258-.426.379l-.777.672c-.438.388-.822.701-1.131.987-.16.128-.299.258-.416.359l-.277.24-.266.23-1.908 1.661-11.012 9.572-186.509 162.154-1.536-1.328-186.509-162.17-11.012-9.573-1.695-1.476c.543.479.331.295-.821-.71l-.586-.507c-.019-.019-.044-.039-.065-.059l-.841-.734c-.352-.314-.747-.655-1.173-1.024l-.447-.387c-.597-.526-1.269-1.107-2.003-1.743l-.565-.489-1.215-1.051c-.202-.185-.416-.369-.639-.563C20.593 171.388 17.545 74.273 17.545 74.273l228.169 196.903 5.054 4.362v.019l3.517-3.035L482.452 75.62z"/><path fill="#FFF" d="M482.456 260.375l-.566 230.644-.029 13.512-.012 2.342v1.172c-.012.389 0 .85-.012 1.395v.947c0 .168.012.346 0 .525v2.122c0 .439 0 .756-.006.861-.012.9-.012 1.883 0 2.959l-.012.006c-.063 25.839-66.868 96.377-66.868 96.377L414.6 334.42l-.012-6.178 67.868-67.867zM85.987 328.242l-.011 6.178-.353 278.816s-66.804-70.538-66.867-96.377l-.012-.006a121.37 121.37 0 000-2.959c-.006-.105-.006-.422-.006-.861v-2.122c-.012-.18 0-.357 0-.525v-.947c-.012-.545 0-1.006-.012-1.395v-1.172l-.006-2.342-.029-13.512-.571-230.643 67.867 67.867z"/><path fill="#121212" d="M115.652 692.947V8.773l51.723 51.232v536.041zm270.202-12.091V7.053l-51.721 50.456v527.916z"/></svg>